<mxfile host="app.diagrams.net" modified="2023-05-19T03:10:15.652Z" agent="Mozilla/5.0 (Windows NT 10.0; Win64; x64; rv:109.0) Gecko/20100101 Firefox/113.0" etag="VoKD2VI2nhRB82EBn5sL" version="21.3.0" type="github">
  <diagram name="第 1 页" id="fXNLK6KJ9ErBrJ0l4WmO">
    <mxGraphModel dx="1434" dy="754" grid="1" gridSize="10" guides="1" tooltips="1" connect="1" arrows="1" fold="1" page="1" pageScale="1" pageWidth="4681" pageHeight="3300" math="0" shadow="0">
      <root>
        <mxCell id="0" />
        <mxCell id="1" parent="0" />
        <mxCell id="Fhn149U_NyhpxFWYfa_w-1" value="WMS仓储管理系统" style="rounded=0;whiteSpace=wrap;html=1;" vertex="1" parent="1">
          <mxGeometry x="530" y="60" width="190" height="60" as="geometry" />
        </mxCell>
        <mxCell id="Fhn149U_NyhpxFWYfa_w-2" value="RFID应用系统" style="rounded=0;whiteSpace=wrap;html=1;" vertex="1" parent="1">
          <mxGeometry x="380" y="170" width="245" height="70" as="geometry" />
        </mxCell>
        <mxCell id="Fhn149U_NyhpxFWYfa_w-3" value="WCS设备控制系统" style="rounded=0;whiteSpace=wrap;html=1;" vertex="1" parent="1">
          <mxGeometry x="670" y="170" width="220" height="70" as="geometry" />
        </mxCell>
        <mxCell id="Fhn149U_NyhpxFWYfa_w-6" value="RFID读写器" style="rounded=0;whiteSpace=wrap;html=1;" vertex="1" parent="1">
          <mxGeometry x="422.5" y="290" width="160" height="40" as="geometry" />
        </mxCell>
        <mxCell id="Fhn149U_NyhpxFWYfa_w-7" value="RFID标签" style="rounded=0;whiteSpace=wrap;html=1;" vertex="1" parent="1">
          <mxGeometry x="422.5" y="370" width="160" height="40" as="geometry" />
        </mxCell>
        <mxCell id="Fhn149U_NyhpxFWYfa_w-9" value="码垛机，堆垛机，AGV无人叉车" style="rounded=0;whiteSpace=wrap;html=1;" vertex="1" parent="1">
          <mxGeometry x="650" y="310" width="260" height="40" as="geometry" />
        </mxCell>
        <mxCell id="Fhn149U_NyhpxFWYfa_w-10" value="" style="endArrow=classic;startArrow=classic;html=1;rounded=0;entryX=0.5;entryY=1;entryDx=0;entryDy=0;exitX=0.5;exitY=0;exitDx=0;exitDy=0;" edge="1" parent="1" source="Fhn149U_NyhpxFWYfa_w-2" target="Fhn149U_NyhpxFWYfa_w-1">
          <mxGeometry width="50" height="50" relative="1" as="geometry">
            <mxPoint x="700" y="410" as="sourcePoint" />
            <mxPoint x="750" y="360" as="targetPoint" />
          </mxGeometry>
        </mxCell>
        <mxCell id="Fhn149U_NyhpxFWYfa_w-12" value="" style="endArrow=classic;startArrow=classic;html=1;rounded=0;entryX=0.5;entryY=1;entryDx=0;entryDy=0;exitX=0.5;exitY=0;exitDx=0;exitDy=0;" edge="1" parent="1" source="Fhn149U_NyhpxFWYfa_w-3" target="Fhn149U_NyhpxFWYfa_w-1">
          <mxGeometry width="50" height="50" relative="1" as="geometry">
            <mxPoint x="700" y="410" as="sourcePoint" />
            <mxPoint x="750" y="360" as="targetPoint" />
          </mxGeometry>
        </mxCell>
        <mxCell id="Fhn149U_NyhpxFWYfa_w-13" value="" style="endArrow=classic;startArrow=classic;html=1;rounded=0;entryX=0.5;entryY=1;entryDx=0;entryDy=0;exitX=0.5;exitY=0;exitDx=0;exitDy=0;" edge="1" parent="1" source="Fhn149U_NyhpxFWYfa_w-6" target="Fhn149U_NyhpxFWYfa_w-2">
          <mxGeometry width="50" height="50" relative="1" as="geometry">
            <mxPoint x="700" y="410" as="sourcePoint" />
            <mxPoint x="750" y="360" as="targetPoint" />
          </mxGeometry>
        </mxCell>
        <mxCell id="Fhn149U_NyhpxFWYfa_w-16" value="" style="endArrow=classic;startArrow=classic;html=1;rounded=0;entryX=0.5;entryY=1;entryDx=0;entryDy=0;exitX=0.5;exitY=0;exitDx=0;exitDy=0;" edge="1" parent="1" source="Fhn149U_NyhpxFWYfa_w-7" target="Fhn149U_NyhpxFWYfa_w-6">
          <mxGeometry width="50" height="50" relative="1" as="geometry">
            <mxPoint x="700" y="410" as="sourcePoint" />
            <mxPoint x="750" y="360" as="targetPoint" />
          </mxGeometry>
        </mxCell>
        <mxCell id="Fhn149U_NyhpxFWYfa_w-17" value="" style="endArrow=classic;startArrow=classic;html=1;rounded=0;entryX=0.5;entryY=1;entryDx=0;entryDy=0;exitX=0.5;exitY=0;exitDx=0;exitDy=0;" edge="1" parent="1" source="Fhn149U_NyhpxFWYfa_w-9" target="Fhn149U_NyhpxFWYfa_w-3">
          <mxGeometry width="50" height="50" relative="1" as="geometry">
            <mxPoint x="700" y="410" as="sourcePoint" />
            <mxPoint x="750" y="360" as="targetPoint" />
          </mxGeometry>
        </mxCell>
      </root>
    </mxGraphModel>
  </diagram>
</mxfile>
